<?xml version="1.0" encoding="utf-8"?>
<!-- Generator: Adobe Illustrator 22.1.0, SVG Export Plug-In . SVG Version: 6.00 Build 0)  -->
<svg version="1.1" id="图层_1" xmlns="http://www.w3.org/2000/svg" xmlns:xlink="http://www.w3.org/1999/xlink" x="0px" y="0px"
	 viewBox="0 0 144 144" style="enable-background:new 0 0 144 144;" xml:space="preserve">
<style type="text/css">
	.st0{fill:#292929;}
	.st1{fill:#4889F4;}
	.st2{fill:#39AA57;}
	.st3{fill:#FBC015;}
	.st4{fill:#EB4F42;}
</style>
<circle class="st0" cx="72" cy="72" r="66.1"/>
<g>
	<path class="st1" d="M116.1,73c0-3.2-0.3-6.3-0.8-9.2H72.9v17.4h24.2c-1,5.6-4.3,10.5-9,13.6v11.3h14.5
		C111.2,98.3,116.1,86.7,116.1,73z"/>
	<path class="st2" d="M72.9,117c12.2,0,22.3-4,29.8-10.9L88.1,94.8c-4,2.7-9.2,4.3-15.2,4.3c-11.7,0-21.6-7.9-25.2-18.6h-15v11.7
		C40.3,107.4,55.9,117,72.9,117z"/>
	<path class="st3" d="M47.7,80.6c-0.9-2.8-1.4-5.6-1.4-8.6c0-3,0.5-5.8,1.4-8.5V51.8h-15C29.5,58.1,27.9,65,27.9,72
		c0,7.3,1.7,14.1,4.8,20.2L47.7,80.6z"/>
	<path class="st4" d="M72.9,44.9c6.6,0,12.5,2.3,17.2,6.7L103,38.7C95.2,31.5,85,27,72.9,27c-17,0-32.6,9.6-40.2,24.8l15,11.7
		C51.3,52.8,61.2,44.9,72.9,44.9z"/>
</g>
</svg>
