<?xml version="1.0" encoding="utf-8"?>
<!-- Generator: Adobe Illustrator 22.1.0, SVG Export Plug-In . SVG Version: 6.00 Build 0)  -->
<svg version="1.1" id="Layer_1" xmlns="http://www.w3.org/2000/svg" xmlns:xlink="http://www.w3.org/1999/xlink" x="0px" y="0px"
	 viewBox="0 0 120 120" style="enable-background:new 0 0 120 120;" xml:space="preserve">
<style type="text/css">
	.st0{fill:#5555FF;}
	.st1{fill:#FFFFFF;}
</style>
<path class="st0" d="M119,120H1c-0.6,0-1-0.4-1-1V1c0-0.6,0.4-1,1-1h118c0.6,0,1,0.4,1,1v118C120,119.6,119.6,120,119,120z"/>
<g>
	<path class="st1" d="M103,45.8h-9.1c-0.6,0-0.8,0.3-0.8,0.8v16.1c0,2.2,0,4.1,0.1,5.7c0,1.6,0.1,2.9,0.1,4s0.1,2.1,0.1,2.8
		c0,0.8,0.1,1.5,0.1,2.1h-0.1c-0.6-1.2-1.4-2.9-2.5-5c-1.1-2.2-2.4-4.6-3.8-7.4c-1.5-2.8-3-5.7-4.7-8.8c-1.7-3.1-3.3-6.2-5-9.2
		s-3.3-6-4.8-8.7c-1.6-2.8-2.9-5.2-4-7.3c-0.1-0.3-0.3-0.4-0.4-0.5s-0.4-0.1-0.8-0.1h-3.3h-10h-0.1c-0.4,0-0.7,0.2-0.7,0.7l0,0
		c0,0.1,0,0.1,0,0.2v37.2c0,2.9-0.3,5.3-1,7.3s-1.6,3.5-2.8,4.7c-1.2,1.2-2.5,2-4.1,2.5c-1.6,0.5-3.3,0.8-5.2,0.8
		c-4.6,0-8-1.4-10.2-4.1c-2.2-2.7-3.3-6.4-3.3-10.9V31c0-0.5-0.3-0.8-0.8-0.8h-10c-0.5,0-0.8,0.3-0.8,0.9v38.2
		c0,4.1,0.6,7.7,1.7,10.7s2.8,5.6,4.9,7.6s4.8,3.5,7.8,4.5s6.4,1.5,10.2,1.5c3.5,0,6.8-0.5,9.8-1.4c3.1-0.9,5.7-2.4,7.9-4.4
		c2.2-2,4-4.6,5.3-7.7s1.9-6.9,1.9-11.4V44.8c0.5,1.1,1.1,2.4,1.8,3.8c1.3,2.6,2.8,5.5,4.4,8.6s3.4,6.4,5.2,9.8
		c1.8,3.4,3.6,6.7,5.4,9.9c1.7,3.2,3.3,6.1,4.8,8.7c1.4,2.7,2.6,4.8,3.4,6.4c0.3,0.4,0.7,0.7,1.2,0.7h12.1c0.6,0,0.9-0.3,0.9-0.8
		V46.7C103.9,46.1,103.6,45.8,103,45.8z"/>
	<circle class="st1" cx="98.4" cy="32.9" r="6.6"/>
</g>
</svg>
